# xmcd
#
# Track frame offsets:
#       182
#       15242
#       30320
#       43305
#       58167
#       71695
#       84217
#       98182
#       111040
#       125762
#       141005
#       154937
#       168352
#       183430
#       197122
#       212480
#       226765
#       242322
#       256392
#       272422
#       285727
#       304657
#
# Disc length: 4231 seconds
#
# Revision: 1
# Processed by: cddbd v1.5.2PL0 Copyright (c) Steve Scherf et al.
# Submitted via: FreeDbEdit v0.1
#
DISCID=26108516
DTITLE=Charlie Christian - Solo Flight
DYEAR=1909
DGENRE=Jazz
TTITLE0=One Sweet Letter From You
TTITLE1=Flying Home
TTITLE2=Rose Room
TTITLE3=Star Dust
TTITLE4=Haven't Named It Yet
TTITLE5=Seven Come Eleven
TTITLE6=Honeysuckle Rose
TTITLE7=Shivers
TTITLE8=Gone With 'What' Wind
TTITLE9=The Sheik of Araby
TTITLE10=Surrender Dear
TTITLE11=Boy Meets Girl (Grand Slam)
TTITLE12=Six Appeal
TTITLE13=Wholly Cats
TTITLE14=As Long as I Live
TTITLE15=Benny's Bugle
TTITLE16=I Can't Give You Anything but Love
TTITLE17=Breakfast Feud
TTITLE18=On the Alamo
TTITLE19=I Found a New Baby
TTITLE20=Profoundly Blue
TTITLE21=Solo Flight
EXTD=YEAR: 1909
EXTT0=
EXTT1=
EXTT2=
EXTT3=
EXTT4=
EXTT5=
EXTT6=
EXTT7=
EXTT8=
EXTT9=
EXTT10=
EXTT11=
EXTT12=
EXTT13=
EXTT14=
EXTT15=
EXTT16=
EXTT17=
EXTT18=
EXTT19=
EXTT20=
EXTT21=
PLAYORDER=
